<?xml version="1.0" encoding="utf-8"?>

<!DOCTYPE svg PUBLIC "-//W3C//DTD SVG 1.1//EN" "http://www.w3.org/Graphics/SVG/1.1/DTD/svg11.dtd">
<!-- Uploaded to: SVG Repo, www.svgrepo.com, Generator: SVG Repo Mixer Tools -->
<svg version="1.1" id="_x32_" xmlns="http://www.w3.org/2000/svg" xmlns:xlink="http://www.w3.org/1999/xlink" 
	 width="800px" height="800px" viewBox="0 0 512 512"  xml:space="preserve">
<style type="text/css">
<![CDATA[
	.st0{fill:#000000;}
]]>
</style>
<g>
	<path class="st0" d="M453.5,429.797c-1.984-7.484-4.781-14.203-8.234-20.188c-6.031-10.516-14.078-18.703-22.953-25.203
		c-6.656-4.906-13.781-8.891-21.016-12.313c-10.859-5.156-22-9.094-32.297-12.891c-10.313-3.797-19.781-7.484-27.234-11.75
		l-0.813-0.469c-2.688-1.578-5.094-3.234-7.172-4.969c-3.141-2.609-5.563-5.391-7.344-8.5c-1.766-3.109-2.938-6.609-3.406-10.984
		c-0.313-3.094-0.469-2.891-0.453-6c-0.016-9.188,1.266-18.234,2.781-25.656c4.625-5.219,8.844-11.438,12.844-18.875
		c4.031-7.484,7.828-16.219,11.625-26.563c2.438-1.125,4.891-2.438,7.297-4.063c5.453-3.656,10.641-8.781,14.969-15.609
		c4.313-6.828,7.797-15.313,10.156-25.781c0.656-2.891,0.969-5.797,0.969-8.641c0-5.938-1.391-11.594-3.75-16.672
		c-1.625-3.484-3.719-6.703-6.141-9.641c1.234-4.563,2.75-10.703,4.078-17.891c1.844-9.984,3.375-21.984,3.375-34.578
		c0-8.156-0.641-16.563-2.281-24.844c-1.266-6.219-3.078-12.406-5.641-18.313c-3.859-8.891-9.469-17.25-17.266-24.156
		c-7.203-6.406-16.266-11.484-27.172-14.75c-3.875-4.625-7.734-8.563-11.734-11.906c-3.422-2.875-6.922-5.297-10.516-7.281
		c-5.422-3-11.016-4.969-16.75-6.188c-5.719-1.203-11.594-1.656-17.641-1.656c-8.359,0.031-17.156,0.844-26.859,1.797
		c-3.672,0.375-6.766,0.828-9.422,1.297c-3.984,0.719-6.969,1.469-9.359,1.938c-1.203,0.25-2.25,0.438-3.281,0.531
		c-1.016,0.156-2.047,0.219-3.172,0.219c-1.531,0-3.313-0.125-5.594-0.469C207,7.75,200.531,6.156,195.469,4.594
		c-2.547-0.766-4.75-1.531-6.469-2.188c-0.844-0.313-1.594-0.625-2.203-0.875c-0.594-0.25-1.047-0.469-1.313-0.594
		c-0.781-0.406-1.516-0.625-2.203-0.766C182.625,0.031,182.031,0,181.516,0c-1.094,0-1.844,0.156-2.469,0.313
		c-0.594,0.172-1.063,0.344-1.484,0.516c-0.813,0.328-1.453,0.688-2.063,1.063c-1.141,0.672-2.219,1.438-3.391,2.328
		c-2.016,1.563-4.234,3.5-6.594,5.781c-3.531,3.406-7.313,7.531-10.75,12.016c-1.719,2.25-3.344,4.594-4.797,7.016
		c-1.438,2.438-2.719,4.922-3.719,7.531c-4.984,12.906-8.266,24.813-10.297,35.781c-2.047,11-2.828,21.063-2.828,30.297
		c0,15.109,2.109,27.922,4.125,38.734c0,0.516,0.047,1.016,0.078,1.531c0.047,1.016,0.156,2.063,0.266,3.156
		c0.172,1.641,0.359,3.313,0.5,4.703c0.078,0.703,0.141,1.328,0.188,1.813c0.016,0.234,0.031,0.453,0.031,0.609l0.016,0.156v0.031
		v0.016v0.938l2,8.844c-2.875,3.125-5.344,6.609-7.266,10.453c-2.688,5.344-4.281,11.375-4.281,17.734
		c0,2.828,0.328,5.734,0.984,8.641v-0.016c1.563,6.984,3.625,13.078,6.125,18.391c3.719,7.984,8.438,14.188,13.656,18.844
		c4.047,3.625,8.359,6.266,12.641,8.219c3.797,10.328,7.594,19.063,11.625,26.531c3.984,7.453,8.219,13.656,12.844,18.875
		c1.516,7.453,2.797,16.5,2.781,25.703c0,3.109-0.141,2.891-0.469,5.984c-0.313,3-0.984,5.609-1.922,7.938
		c-1.422,3.5-3.5,6.484-6.344,9.297c-2.797,2.797-6.391,5.391-10.641,7.797l-3.313,1.781c-3.547,1.813-7.438,3.531-11.578,5.219
		c-9.547,3.875-20.438,7.516-31.5,11.922c-8.281,3.313-16.672,7.063-24.656,11.781c-6,3.531-11.766,7.625-17.063,12.484
		c-7.953,7.281-14.797,16.344-19.547,27.578s-7.375,24.516-7.375,40.234c0,2.203,0.453,4.328,1.219,6.281
		c0.719,1.813,1.703,3.5,2.859,5.094c2.172,2.969,5,5.625,8.469,8.188c6.047,4.469,14.109,8.641,24.516,12.594
		c15.625,5.891,36.578,11.188,63.641,15.031S216,512,256,512c34.688,0,64.25-1.797,89.141-4.781
		c18.656-2.25,34.688-5.156,48.328-8.469c10.203-2.5,19.063-5.234,26.656-8.125c5.703-2.141,10.688-4.406,15.016-6.719
		c3.266-1.719,6.156-3.5,8.703-5.344c3.797-2.75,6.859-5.594,9.203-8.813c1.156-1.625,2.109-3.344,2.813-5.203
		s1.109-3.891,1.109-5.984C456.969,447.906,455.766,438.344,453.5,429.797z M183.094,87.156C228.313,97.203,316.719,78,316.719,78
		s0.953,21.969,16.031,42.047c7.969,10.641,14.031,29.234,17.828,43.641c-0.125-0.031-0.266-0.031-0.406-0.063
		c-2.234-0.313-2.625-1.703-2.891-2.906c-0.563-2.703-3.094-3.516-7.141-4.063c-7.766-1.016-19.266-1.703-32.234-1.063
		c-38.516,1.875-35.656,5.375-50.797,5.375c-15.125,0-12.266-3.5-50.781-5.375c-12.969-0.641-24.484,0.047-32.25,1.063
		c-4.031,0.547-6.563,1.359-7.125,4.063c-0.266,1.203-0.656,2.594-2.906,2.906c-0.016,0-0.047,0-0.063,0
		C165.281,146.484,181.266,125.078,183.094,87.156z M339.563,184.031c0,0.203-0.172,22.297-15.188,29.859
		c-5.109,2.563-11.516,3.984-18.016,3.984c-6.875,0-13.172-1.563-18.188-4.5c-5.531-3.25-9.281-8.063-11.109-14.313
		c-0.438-1.438-0.844-2.906-1.219-4.313c-1.203-4.313-4.406-16.219,2.391-21.484c4.375-3.422,17.969-5.578,30.969-5.578
		c11.844,0,23.891,1.625,27.422,5.313C338.953,175.406,339.859,179.766,339.563,184.031z M238.406,194.75
		c-0.391,1.406-0.813,2.875-1.234,4.313c-1.844,6.25-5.563,11.063-11.094,14.313c-5.031,2.938-11.328,4.5-18.203,4.5
		c-6.5,0-12.906-1.422-18.016-3.984c-15.016-7.563-15.188-29.656-15.188-29.859c-0.297-4.266,0.609-8.625,2.938-11.031
		c3.531-3.688,15.578-5.313,27.422-5.313c13,0,26.594,2.156,30.969,5.578C242.797,178.531,239.594,190.438,238.406,194.75z
		 M239.438,430.656l-53.344-73.547c0.672-0.484,1.359-1,2.031-1.531c2.922-2.344,5.625-4.984,8.016-7.938l43.016,19.953
		l-9.188,15.297l14.219,15.078L239.438,430.656z M202.234,337.531c1.734-4.047,2.906-8.5,3.406-13.281
		c0.391-3.719,0.547-4.094,0.547-7.703c0-11.781-1.75-22.797-3.625-31.438l-0.516-2.281l-1.578-1.688
		c-4.063-4.297-7.984-9.766-11.906-17.094c-3.922-7.297-7.828-16.391-11.859-27.734l-1.297-3.719l-3.719-1.344
		c-2.531-0.938-5.031-2.156-7.438-3.766c-3.609-2.438-7.031-5.734-10.188-10.672c-3.125-4.953-5.953-11.563-7.969-20.516
		c-0.375-1.703-0.563-3.344-0.563-4.938c0-3.563,0.891-6.969,2.5-10.234c1.344-2.688,3.25-5.266,5.516-7.563
		c3.844,5.813,7.016,10.422,8.172,11.578c1.25,1.25,2.141,1.094,2.703,0.031c0.734,8.234,4.141,26.734,20.203,35.266
		c20.281,10.766,50.516,6.734,60.781-17.234c4.656-10.813,4.719-21.391,11.703-21.391s7.063,10.578,11.703,21.391
		c10.281,23.969,40.531,28,60.781,17.234S350,183.031,350,181.156c0-1.094,1.141-1.891,2.703-1.891c0.563,0,1.063-0.188,1.484-0.484
		c0.672,3.188,1.016,5.094,1.016,5.094s1.953-3.688,4.828-8.625c1.75,2.031,3.188,4.219,4.266,6.5
		c1.406,3.063,2.172,6.266,2.172,9.594c0,1.609-0.172,3.25-0.563,4.953c-1.344,5.953-3.047,10.891-4.969,14.969
		c-2.875,6.141-6.172,10.359-9.625,13.469c-3.469,3.078-7.156,5.109-10.984,6.516l-3.703,1.344l-1.313,3.703
		c-4.016,11.359-7.938,20.453-11.859,27.781c-3.938,7.297-7.844,12.797-11.906,17.078l-1.609,1.703l-0.484,2.266
		c-1.891,8.625-3.641,19.641-3.641,31.406c0,3.625,0.172,3.984,0.547,7.719c0.453,4.344,1.453,8.422,2.938,12.172
		c0.078,0.172,0.156,0.344,0.234,0.531l-50.906,26.734L202.234,337.531z M276.781,434.156l-5.25-36.188l14.219-15.078l-9.219-15.359
		l38.906-20.453c1.078,1.391,2.219,2.703,3.438,3.938c2.203,2.281,4.641,4.328,7.188,6.219L276.781,434.156z"/>
</g>
</svg>